M48
;DRILL file {KiCad 4.0.2+dfsg1-stable} date Wed 17 Oct 2018 17:21:09 BST
;FORMAT={-:-/ absolute / inch / decimal}
FMAT,2
INCH,TZ
T1C0.016
T2C0.040
%
G90
G05
M72
T1
X5.075Y-3.35
X5.475Y-3.55
X5.525Y-3.575
X5.575Y-3.6
X5.625Y-3.625
X5.75Y-3.35
X6.15Y-3.525
X6.25Y-3.55
X6.35Y-3.575
X6.45Y-3.6
X6.525Y-3.275
X6.55Y-3.25
X6.8Y-3.775
X6.825Y-3.725
X6.95Y-3.875
X7.05Y-3.9
X7.15Y-3.925
X7.25Y-3.95
T2
X4.35Y-3.3
X4.35Y-3.4
X4.45Y-3.3
X4.45Y-3.4
X4.55Y-3.3
X4.55Y-3.4
X4.575Y-3.75
X4.65Y-3.3
X4.65Y-3.4
X4.675Y-3.75
X4.75Y-3.3
X4.75Y-3.4
X4.775Y-3.75
X4.85Y-3.3
X4.85Y-3.4
X4.85Y-4.05
X4.85Y-4.15
X4.95Y-4.05
X4.95Y-4.15
X5.05Y-4.05
X5.05Y-4.15
X5.15Y-3.3
X5.15Y-3.4
X5.15Y-4.05
X5.15Y-4.15
X5.25Y-3.3
X5.25Y-3.4
X5.25Y-4.05
X5.25Y-4.15
X5.35Y-3.3
X5.35Y-3.4
X5.35Y-4.05
X5.35Y-4.15
X5.45Y-3.3
X5.45Y-3.4
X5.45Y-4.05
X5.45Y-4.15
X5.55Y-3.3
X5.55Y-3.4
X5.55Y-4.05
X5.55Y-4.15
X5.65Y-3.3
X5.65Y-3.4
X5.65Y-4.05
X5.65Y-4.15
X5.75Y-4.05
X5.75Y-4.15
X5.85Y-4.05
X5.85Y-4.15
X5.95Y-3.3
X5.95Y-3.4
X5.95Y-4.05
X5.95Y-4.15
X6.05Y-3.3
X6.05Y-3.4
X6.05Y-4.05
X6.05Y-4.15
X6.15Y-3.3
X6.15Y-3.4
X6.15Y-4.05
X6.15Y-4.15
X6.25Y-3.3
X6.25Y-3.4
X6.25Y-3.7
X6.25Y-3.8
X6.25Y-4.05
X6.25Y-4.15
X6.35Y-3.3
X6.35Y-3.4
X6.35Y-3.7
X6.35Y-3.8
X6.35Y-4.05
X6.35Y-4.15
X6.45Y-3.3
X6.45Y-3.4
X6.45Y-3.7
X6.45Y-3.8
X6.45Y-4.05
X6.45Y-4.15
X6.55Y-4.05
X6.55Y-4.15
X6.65Y-4.05
X6.65Y-4.15
X6.75Y-3.3
X6.75Y-3.4
X6.75Y-4.05
X6.75Y-4.15
X6.85Y-3.3
X6.85Y-3.4
X6.95Y-3.3
X6.95Y-3.4
X7.05Y-3.3
X7.05Y-3.4
X7.15Y-3.3
X7.15Y-3.4
X7.25Y-3.3
X7.25Y-3.4
T0
M30
