G04 #@! TF.FileFunction,Legend,Top*
%FSLAX46Y46*%
G04 Gerber Fmt 4.6, Leading zero omitted, Abs format (unit mm)*
G04 Created by KiCad (PCBNEW 4.0.2+dfsg1-stable) date Wed 03 Oct 2018 19:13:07 BST*
%MOMM*%
G01*
G04 APERTURE LIST*
%ADD10C,0.100000*%
%ADD11C,0.300000*%
%ADD12C,0.150000*%
%ADD13C,0.254000*%
%ADD14C,0.200000*%
G04 APERTURE END LIST*
D10*
D11*
X157031429Y-93357143D02*
X155817143Y-93357143D01*
X155674286Y-93428571D01*
X155602857Y-93500000D01*
X155531429Y-93642857D01*
X155531429Y-93928571D01*
X155602857Y-94071429D01*
X155674286Y-94142857D01*
X155817143Y-94214286D01*
X157031429Y-94214286D01*
X155602857Y-94857143D02*
X155531429Y-95071429D01*
X155531429Y-95428572D01*
X155602857Y-95571429D01*
X155674286Y-95642858D01*
X155817143Y-95714286D01*
X155960000Y-95714286D01*
X156102857Y-95642858D01*
X156174286Y-95571429D01*
X156245714Y-95428572D01*
X156317143Y-95142858D01*
X156388571Y-95000000D01*
X156460000Y-94928572D01*
X156602857Y-94857143D01*
X156745714Y-94857143D01*
X156888571Y-94928572D01*
X156960000Y-95000000D01*
X157031429Y-95142858D01*
X157031429Y-95500000D01*
X156960000Y-95714286D01*
X156317143Y-96857143D02*
X156245714Y-97071429D01*
X156174286Y-97142857D01*
X156031429Y-97214286D01*
X155817143Y-97214286D01*
X155674286Y-97142857D01*
X155602857Y-97071429D01*
X155531429Y-96928571D01*
X155531429Y-96357143D01*
X157031429Y-96357143D01*
X157031429Y-96857143D01*
X156960000Y-97000000D01*
X156888571Y-97071429D01*
X156745714Y-97142857D01*
X156602857Y-97142857D01*
X156460000Y-97071429D01*
X156388571Y-97000000D01*
X156317143Y-96857143D01*
X156317143Y-96357143D01*
X167048571Y-96750000D02*
X165548571Y-96750000D01*
X165548571Y-96178572D01*
X165620000Y-96035714D01*
X165691429Y-95964286D01*
X165834286Y-95892857D01*
X166048571Y-95892857D01*
X166191429Y-95964286D01*
X166262857Y-96035714D01*
X166334286Y-96178572D01*
X166334286Y-96750000D01*
X166905714Y-94392857D02*
X166977143Y-94464286D01*
X167048571Y-94678572D01*
X167048571Y-94821429D01*
X166977143Y-95035714D01*
X166834286Y-95178572D01*
X166691429Y-95250000D01*
X166405714Y-95321429D01*
X166191429Y-95321429D01*
X165905714Y-95250000D01*
X165762857Y-95178572D01*
X165620000Y-95035714D01*
X165548571Y-94821429D01*
X165548571Y-94678572D01*
X165620000Y-94464286D01*
X165691429Y-94392857D01*
X167048571Y-93750000D02*
X165548571Y-93750000D01*
X108125001Y-95357143D02*
X109267858Y-95357143D01*
X108696429Y-95928571D02*
X108696429Y-94785714D01*
X109839287Y-94428571D02*
X110767858Y-94428571D01*
X110267858Y-95000000D01*
X110482144Y-95000000D01*
X110625001Y-95071429D01*
X110696430Y-95142857D01*
X110767858Y-95285714D01*
X110767858Y-95642857D01*
X110696430Y-95785714D01*
X110625001Y-95857143D01*
X110482144Y-95928571D01*
X110053572Y-95928571D01*
X109910715Y-95857143D01*
X109839287Y-95785714D01*
X111410715Y-95785714D02*
X111482143Y-95857143D01*
X111410715Y-95928571D01*
X111339286Y-95857143D01*
X111410715Y-95785714D01*
X111410715Y-95928571D01*
X111982144Y-94428571D02*
X112910715Y-94428571D01*
X112410715Y-95000000D01*
X112625001Y-95000000D01*
X112767858Y-95071429D01*
X112839287Y-95142857D01*
X112910715Y-95285714D01*
X112910715Y-95642857D01*
X112839287Y-95785714D01*
X112767858Y-95857143D01*
X112625001Y-95928571D01*
X112196429Y-95928571D01*
X112053572Y-95857143D01*
X111982144Y-95785714D01*
X113339286Y-94428571D02*
X113839286Y-95928571D01*
X114339286Y-94428571D01*
X123166429Y-95357143D02*
X124309286Y-95357143D01*
X123737857Y-95928571D02*
X123737857Y-94785714D01*
X125737858Y-94428571D02*
X125023572Y-94428571D01*
X124952143Y-95142857D01*
X125023572Y-95071429D01*
X125166429Y-95000000D01*
X125523572Y-95000000D01*
X125666429Y-95071429D01*
X125737858Y-95142857D01*
X125809286Y-95285714D01*
X125809286Y-95642857D01*
X125737858Y-95785714D01*
X125666429Y-95857143D01*
X125523572Y-95928571D01*
X125166429Y-95928571D01*
X125023572Y-95857143D01*
X124952143Y-95785714D01*
X126237857Y-94428571D02*
X126737857Y-95928571D01*
X127237857Y-94428571D01*
X119284286Y-109898571D02*
X119284286Y-108398571D01*
X119855714Y-108398571D01*
X119998572Y-108470000D01*
X120070000Y-108541429D01*
X120141429Y-108684286D01*
X120141429Y-108898571D01*
X120070000Y-109041429D01*
X119998572Y-109112857D01*
X119855714Y-109184286D01*
X119284286Y-109184286D01*
X120784286Y-109898571D02*
X120784286Y-108398571D01*
X121284286Y-109470000D01*
X121784286Y-108398571D01*
X121784286Y-109898571D01*
X122784286Y-108398571D02*
X123070000Y-108398571D01*
X123212858Y-108470000D01*
X123355715Y-108612857D01*
X123427143Y-108898571D01*
X123427143Y-109398571D01*
X123355715Y-109684286D01*
X123212858Y-109827143D01*
X123070000Y-109898571D01*
X122784286Y-109898571D01*
X122641429Y-109827143D01*
X122498572Y-109684286D01*
X122427143Y-109398571D01*
X122427143Y-108898571D01*
X122498572Y-108612857D01*
X122641429Y-108470000D01*
X122784286Y-108398571D01*
X124070001Y-109898571D02*
X124070001Y-108398571D01*
X124427144Y-108398571D01*
X124641429Y-108470000D01*
X124784287Y-108612857D01*
X124855715Y-108755714D01*
X124927144Y-109041429D01*
X124927144Y-109255714D01*
X124855715Y-109541429D01*
X124784287Y-109684286D01*
X124641429Y-109827143D01*
X124427144Y-109898571D01*
X124070001Y-109898571D01*
X125570001Y-109327143D02*
X126712858Y-109327143D01*
X128284287Y-109755714D02*
X128212858Y-109827143D01*
X127998572Y-109898571D01*
X127855715Y-109898571D01*
X127641430Y-109827143D01*
X127498572Y-109684286D01*
X127427144Y-109541429D01*
X127355715Y-109255714D01*
X127355715Y-109041429D01*
X127427144Y-108755714D01*
X127498572Y-108612857D01*
X127641430Y-108470000D01*
X127855715Y-108398571D01*
X127998572Y-108398571D01*
X128212858Y-108470000D01*
X128284287Y-108541429D01*
X129141430Y-109898571D02*
X128998572Y-109827143D01*
X128927144Y-109755714D01*
X128855715Y-109612857D01*
X128855715Y-109184286D01*
X128927144Y-109041429D01*
X128998572Y-108970000D01*
X129141430Y-108898571D01*
X129355715Y-108898571D01*
X129498572Y-108970000D01*
X129570001Y-109041429D01*
X129641430Y-109184286D01*
X129641430Y-109612857D01*
X129570001Y-109755714D01*
X129498572Y-109827143D01*
X129355715Y-109898571D01*
X129141430Y-109898571D01*
X130284287Y-109898571D02*
X130284287Y-108898571D01*
X130284287Y-109041429D02*
X130355715Y-108970000D01*
X130498573Y-108898571D01*
X130712858Y-108898571D01*
X130855715Y-108970000D01*
X130927144Y-109112857D01*
X130927144Y-109898571D01*
X130927144Y-109112857D02*
X130998573Y-108970000D01*
X131141430Y-108898571D01*
X131355715Y-108898571D01*
X131498573Y-108970000D01*
X131570001Y-109112857D01*
X131570001Y-109898571D01*
X132284287Y-108898571D02*
X132284287Y-110398571D01*
X132284287Y-108970000D02*
X132427144Y-108898571D01*
X132712858Y-108898571D01*
X132855715Y-108970000D01*
X132927144Y-109041429D01*
X132998573Y-109184286D01*
X132998573Y-109612857D01*
X132927144Y-109755714D01*
X132855715Y-109827143D01*
X132712858Y-109898571D01*
X132427144Y-109898571D01*
X132284287Y-109827143D01*
X134284287Y-109898571D02*
X134284287Y-109112857D01*
X134212858Y-108970000D01*
X134070001Y-108898571D01*
X133784287Y-108898571D01*
X133641430Y-108970000D01*
X134284287Y-109827143D02*
X134141430Y-109898571D01*
X133784287Y-109898571D01*
X133641430Y-109827143D01*
X133570001Y-109684286D01*
X133570001Y-109541429D01*
X133641430Y-109398571D01*
X133784287Y-109327143D01*
X134141430Y-109327143D01*
X134284287Y-109255714D01*
X134784287Y-108898571D02*
X135355716Y-108898571D01*
X134998573Y-108398571D02*
X134998573Y-109684286D01*
X135070001Y-109827143D01*
X135212859Y-109898571D01*
X135355716Y-109898571D01*
X135855716Y-109898571D02*
X135855716Y-108898571D01*
X135855716Y-108398571D02*
X135784287Y-108470000D01*
X135855716Y-108541429D01*
X135927144Y-108470000D01*
X135855716Y-108398571D01*
X135855716Y-108541429D01*
X136570002Y-109898571D02*
X136570002Y-108398571D01*
X136570002Y-108970000D02*
X136712859Y-108898571D01*
X136998573Y-108898571D01*
X137141430Y-108970000D01*
X137212859Y-109041429D01*
X137284288Y-109184286D01*
X137284288Y-109612857D01*
X137212859Y-109755714D01*
X137141430Y-109827143D01*
X136998573Y-109898571D01*
X136712859Y-109898571D01*
X136570002Y-109827143D01*
X138141431Y-109898571D02*
X137998573Y-109827143D01*
X137927145Y-109684286D01*
X137927145Y-108398571D01*
X139284287Y-109827143D02*
X139141430Y-109898571D01*
X138855716Y-109898571D01*
X138712859Y-109827143D01*
X138641430Y-109684286D01*
X138641430Y-109112857D01*
X138712859Y-108970000D01*
X138855716Y-108898571D01*
X139141430Y-108898571D01*
X139284287Y-108970000D01*
X139355716Y-109112857D01*
X139355716Y-109255714D01*
X138641430Y-109398571D01*
X141141430Y-109898571D02*
X141141430Y-108398571D01*
X141855716Y-108898571D02*
X141855716Y-109898571D01*
X141855716Y-109041429D02*
X141927144Y-108970000D01*
X142070002Y-108898571D01*
X142284287Y-108898571D01*
X142427144Y-108970000D01*
X142498573Y-109112857D01*
X142498573Y-109898571D01*
X142998573Y-108898571D02*
X143570002Y-108898571D01*
X143212859Y-108398571D02*
X143212859Y-109684286D01*
X143284287Y-109827143D01*
X143427145Y-109898571D01*
X143570002Y-109898571D01*
X144641430Y-109827143D02*
X144498573Y-109898571D01*
X144212859Y-109898571D01*
X144070002Y-109827143D01*
X143998573Y-109684286D01*
X143998573Y-109112857D01*
X144070002Y-108970000D01*
X144212859Y-108898571D01*
X144498573Y-108898571D01*
X144641430Y-108970000D01*
X144712859Y-109112857D01*
X144712859Y-109255714D01*
X143998573Y-109398571D01*
X145355716Y-109898571D02*
X145355716Y-108898571D01*
X145355716Y-109184286D02*
X145427144Y-109041429D01*
X145498573Y-108970000D01*
X145641430Y-108898571D01*
X145784287Y-108898571D01*
X146070001Y-108898571D02*
X146641430Y-108898571D01*
X146284287Y-109898571D02*
X146284287Y-108612857D01*
X146355715Y-108470000D01*
X146498573Y-108398571D01*
X146641430Y-108398571D01*
X147784287Y-109898571D02*
X147784287Y-109112857D01*
X147712858Y-108970000D01*
X147570001Y-108898571D01*
X147284287Y-108898571D01*
X147141430Y-108970000D01*
X147784287Y-109827143D02*
X147641430Y-109898571D01*
X147284287Y-109898571D01*
X147141430Y-109827143D01*
X147070001Y-109684286D01*
X147070001Y-109541429D01*
X147141430Y-109398571D01*
X147284287Y-109327143D01*
X147641430Y-109327143D01*
X147784287Y-109255714D01*
X149141430Y-109827143D02*
X148998573Y-109898571D01*
X148712859Y-109898571D01*
X148570001Y-109827143D01*
X148498573Y-109755714D01*
X148427144Y-109612857D01*
X148427144Y-109184286D01*
X148498573Y-109041429D01*
X148570001Y-108970000D01*
X148712859Y-108898571D01*
X148998573Y-108898571D01*
X149141430Y-108970000D01*
X150355715Y-109827143D02*
X150212858Y-109898571D01*
X149927144Y-109898571D01*
X149784287Y-109827143D01*
X149712858Y-109684286D01*
X149712858Y-109112857D01*
X149784287Y-108970000D01*
X149927144Y-108898571D01*
X150212858Y-108898571D01*
X150355715Y-108970000D01*
X150427144Y-109112857D01*
X150427144Y-109255714D01*
X149712858Y-109398571D01*
X151998572Y-108898571D02*
X152570001Y-108898571D01*
X152212858Y-109898571D02*
X152212858Y-108612857D01*
X152284286Y-108470000D01*
X152427144Y-108398571D01*
X152570001Y-108398571D01*
X153284287Y-109898571D02*
X153141429Y-109827143D01*
X153070001Y-109755714D01*
X152998572Y-109612857D01*
X152998572Y-109184286D01*
X153070001Y-109041429D01*
X153141429Y-108970000D01*
X153284287Y-108898571D01*
X153498572Y-108898571D01*
X153641429Y-108970000D01*
X153712858Y-109041429D01*
X153784287Y-109184286D01*
X153784287Y-109612857D01*
X153712858Y-109755714D01*
X153641429Y-109827143D01*
X153498572Y-109898571D01*
X153284287Y-109898571D01*
X154427144Y-109898571D02*
X154427144Y-108898571D01*
X154427144Y-109184286D02*
X154498572Y-109041429D01*
X154570001Y-108970000D01*
X154712858Y-108898571D01*
X154855715Y-108898571D01*
X156284286Y-108898571D02*
X156855715Y-108898571D01*
X156498572Y-108398571D02*
X156498572Y-109684286D01*
X156570000Y-109827143D01*
X156712858Y-109898571D01*
X156855715Y-109898571D01*
X157355715Y-109898571D02*
X157355715Y-108398571D01*
X157998572Y-109898571D02*
X157998572Y-109112857D01*
X157927143Y-108970000D01*
X157784286Y-108898571D01*
X157570001Y-108898571D01*
X157427143Y-108970000D01*
X157355715Y-109041429D01*
X159284286Y-109827143D02*
X159141429Y-109898571D01*
X158855715Y-109898571D01*
X158712858Y-109827143D01*
X158641429Y-109684286D01*
X158641429Y-109112857D01*
X158712858Y-108970000D01*
X158855715Y-108898571D01*
X159141429Y-108898571D01*
X159284286Y-108970000D01*
X159355715Y-109112857D01*
X159355715Y-109255714D01*
X158641429Y-109398571D01*
X161141429Y-109898571D02*
X161141429Y-108398571D01*
X161855715Y-108898571D02*
X161855715Y-109898571D01*
X161855715Y-109041429D02*
X161927143Y-108970000D01*
X162070001Y-108898571D01*
X162284286Y-108898571D01*
X162427143Y-108970000D01*
X162498572Y-109112857D01*
X162498572Y-109898571D01*
X162998572Y-108398571D02*
X163855715Y-108398571D01*
X163427144Y-109898571D02*
X163427144Y-108398571D01*
X164927143Y-109827143D02*
X164784286Y-109898571D01*
X164498572Y-109898571D01*
X164355715Y-109827143D01*
X164284286Y-109684286D01*
X164284286Y-109112857D01*
X164355715Y-108970000D01*
X164498572Y-108898571D01*
X164784286Y-108898571D01*
X164927143Y-108970000D01*
X164998572Y-109112857D01*
X164998572Y-109255714D01*
X164284286Y-109398571D01*
X166498572Y-109755714D02*
X166427143Y-109827143D01*
X166212857Y-109898571D01*
X166070000Y-109898571D01*
X165855715Y-109827143D01*
X165712857Y-109684286D01*
X165641429Y-109541429D01*
X165570000Y-109255714D01*
X165570000Y-109041429D01*
X165641429Y-108755714D01*
X165712857Y-108612857D01*
X165855715Y-108470000D01*
X166070000Y-108398571D01*
X166212857Y-108398571D01*
X166427143Y-108470000D01*
X166498572Y-108541429D01*
X167355715Y-109898571D02*
X167212857Y-109827143D01*
X167141429Y-109755714D01*
X167070000Y-109612857D01*
X167070000Y-109184286D01*
X167141429Y-109041429D01*
X167212857Y-108970000D01*
X167355715Y-108898571D01*
X167570000Y-108898571D01*
X167712857Y-108970000D01*
X167784286Y-109041429D01*
X167855715Y-109184286D01*
X167855715Y-109612857D01*
X167784286Y-109755714D01*
X167712857Y-109827143D01*
X167570000Y-109898571D01*
X167355715Y-109898571D01*
X170498572Y-109755714D02*
X170427143Y-109827143D01*
X170212857Y-109898571D01*
X170070000Y-109898571D01*
X169855715Y-109827143D01*
X169712857Y-109684286D01*
X169641429Y-109541429D01*
X169570000Y-109255714D01*
X169570000Y-109041429D01*
X169641429Y-108755714D01*
X169712857Y-108612857D01*
X169855715Y-108470000D01*
X170070000Y-108398571D01*
X170212857Y-108398571D01*
X170427143Y-108470000D01*
X170498572Y-108541429D01*
X171141429Y-109898571D02*
X171141429Y-108898571D01*
X171141429Y-109184286D02*
X171212857Y-109041429D01*
X171284286Y-108970000D01*
X171427143Y-108898571D01*
X171570000Y-108898571D01*
X172712857Y-109898571D02*
X172712857Y-109112857D01*
X172641428Y-108970000D01*
X172498571Y-108898571D01*
X172212857Y-108898571D01*
X172070000Y-108970000D01*
X172712857Y-109827143D02*
X172570000Y-109898571D01*
X172212857Y-109898571D01*
X172070000Y-109827143D01*
X171998571Y-109684286D01*
X171998571Y-109541429D01*
X172070000Y-109398571D01*
X172212857Y-109327143D01*
X172570000Y-109327143D01*
X172712857Y-109255714D01*
X173427143Y-108898571D02*
X173427143Y-109898571D01*
X173427143Y-109041429D02*
X173498571Y-108970000D01*
X173641429Y-108898571D01*
X173855714Y-108898571D01*
X173998571Y-108970000D01*
X174070000Y-109112857D01*
X174070000Y-109898571D01*
X175355714Y-109827143D02*
X175212857Y-109898571D01*
X174927143Y-109898571D01*
X174784286Y-109827143D01*
X174712857Y-109684286D01*
X174712857Y-109112857D01*
X174784286Y-108970000D01*
X174927143Y-108898571D01*
X175212857Y-108898571D01*
X175355714Y-108970000D01*
X175427143Y-109112857D01*
X175427143Y-109255714D01*
X174712857Y-109398571D01*
D12*
X185420000Y-87630000D02*
X185420000Y-82550000D01*
X170180000Y-87630000D02*
X170180000Y-82550000D01*
X170180000Y-82550000D02*
X185420000Y-82550000D01*
X185420000Y-85090000D02*
X182880000Y-85090000D01*
X182880000Y-85090000D02*
X182880000Y-87630000D01*
X185420000Y-87630000D02*
X170180000Y-87630000D01*
X172720000Y-106680000D02*
X121920000Y-106680000D01*
X121920000Y-101600000D02*
X172720000Y-101600000D01*
X170180000Y-101600000D02*
X170180000Y-104140000D01*
X170180000Y-104140000D02*
X172720000Y-104140000D01*
X121920000Y-106680000D02*
X121920000Y-101600000D01*
X172720000Y-101600000D02*
X172720000Y-106680000D01*
X165100000Y-87630000D02*
X165100000Y-82550000D01*
X149860000Y-87630000D02*
X149860000Y-82550000D01*
X149860000Y-82550000D02*
X165100000Y-82550000D01*
X165100000Y-85090000D02*
X162560000Y-85090000D01*
X162560000Y-85090000D02*
X162560000Y-87630000D01*
X165100000Y-87630000D02*
X149860000Y-87630000D01*
X144780000Y-87630000D02*
X144780000Y-82550000D01*
X129540000Y-87630000D02*
X129540000Y-82550000D01*
X129540000Y-82550000D02*
X144780000Y-82550000D01*
X144780000Y-85090000D02*
X142240000Y-85090000D01*
X142240000Y-85090000D02*
X142240000Y-87630000D01*
X144780000Y-87630000D02*
X129540000Y-87630000D01*
X124460000Y-87630000D02*
X124460000Y-82550000D01*
X109220000Y-87630000D02*
X109220000Y-82550000D01*
X109220000Y-82550000D02*
X124460000Y-82550000D01*
X124460000Y-85090000D02*
X121920000Y-85090000D01*
X121920000Y-85090000D02*
X121920000Y-87630000D01*
X124460000Y-87630000D02*
X109220000Y-87630000D01*
D13*
X117545000Y-94050000D02*
X117545000Y-96450000D01*
X115145000Y-96450000D02*
X122545000Y-96450000D01*
X122545000Y-96450000D02*
X122545000Y-94250000D01*
X122545000Y-94250000D02*
X122545000Y-94050000D01*
X122545000Y-94050000D02*
X114945000Y-94050000D01*
X114945000Y-94050000D02*
X114945000Y-96450000D01*
X114945000Y-96450000D02*
X115145000Y-96450000D01*
D12*
X162590000Y-92650000D02*
X157590000Y-92650000D01*
X157590000Y-92650000D02*
X157490000Y-92650000D01*
X157490000Y-92650000D02*
X157490000Y-97750000D01*
X157490000Y-97750000D02*
X158090000Y-97750000D01*
X162590000Y-95250000D02*
X165090000Y-95250000D01*
X162590000Y-95250000D02*
X162590000Y-92650000D01*
X162590000Y-92650000D02*
X165090000Y-92650000D01*
X165090000Y-92650000D02*
X165090000Y-97750000D01*
X165090000Y-97750000D02*
X158190000Y-97750000D01*
X171116667Y-88352381D02*
X171116667Y-89066667D01*
X171069047Y-89209524D01*
X170973809Y-89304762D01*
X170830952Y-89352381D01*
X170735714Y-89352381D01*
X172116667Y-89352381D02*
X171545238Y-89352381D01*
X171830952Y-89352381D02*
X171830952Y-88352381D01*
X171735714Y-88495238D01*
X171640476Y-88590476D01*
X171545238Y-88638095D01*
D14*
X119911905Y-105862381D02*
X119911905Y-104862381D01*
X120292858Y-104862381D01*
X120388096Y-104910000D01*
X120435715Y-104957619D01*
X120483334Y-105052857D01*
X120483334Y-105195714D01*
X120435715Y-105290952D01*
X120388096Y-105338571D01*
X120292858Y-105386190D01*
X119911905Y-105386190D01*
X121435715Y-105862381D02*
X120864286Y-105862381D01*
X121150000Y-105862381D02*
X121150000Y-104862381D01*
X121054762Y-105005238D01*
X120959524Y-105100476D01*
X120864286Y-105148095D01*
D12*
X150796667Y-88352381D02*
X150796667Y-89066667D01*
X150749047Y-89209524D01*
X150653809Y-89304762D01*
X150510952Y-89352381D01*
X150415714Y-89352381D01*
X151225238Y-88447619D02*
X151272857Y-88400000D01*
X151368095Y-88352381D01*
X151606191Y-88352381D01*
X151701429Y-88400000D01*
X151749048Y-88447619D01*
X151796667Y-88542857D01*
X151796667Y-88638095D01*
X151749048Y-88780952D01*
X151177619Y-89352381D01*
X151796667Y-89352381D01*
X130476667Y-88352381D02*
X130476667Y-89066667D01*
X130429047Y-89209524D01*
X130333809Y-89304762D01*
X130190952Y-89352381D01*
X130095714Y-89352381D01*
X130857619Y-88352381D02*
X131476667Y-88352381D01*
X131143333Y-88733333D01*
X131286191Y-88733333D01*
X131381429Y-88780952D01*
X131429048Y-88828571D01*
X131476667Y-88923810D01*
X131476667Y-89161905D01*
X131429048Y-89257143D01*
X131381429Y-89304762D01*
X131286191Y-89352381D01*
X131000476Y-89352381D01*
X130905238Y-89304762D01*
X130857619Y-89257143D01*
X110156667Y-88352381D02*
X110156667Y-89066667D01*
X110109047Y-89209524D01*
X110013809Y-89304762D01*
X109870952Y-89352381D01*
X109775714Y-89352381D01*
X111061429Y-88685714D02*
X111061429Y-89352381D01*
X110823333Y-88304762D02*
X110585238Y-89019048D01*
X111204286Y-89019048D01*
D14*
X121181905Y-93797381D02*
X121181905Y-92797381D01*
X121562858Y-92797381D01*
X121658096Y-92845000D01*
X121705715Y-92892619D01*
X121753334Y-92987857D01*
X121753334Y-93130714D01*
X121705715Y-93225952D01*
X121658096Y-93273571D01*
X121562858Y-93321190D01*
X121181905Y-93321190D01*
X122134286Y-92892619D02*
X122181905Y-92845000D01*
X122277143Y-92797381D01*
X122515239Y-92797381D01*
X122610477Y-92845000D01*
X122658096Y-92892619D01*
X122705715Y-92987857D01*
X122705715Y-93083095D01*
X122658096Y-93225952D01*
X122086667Y-93797381D01*
X122705715Y-93797381D01*
X160551905Y-99512381D02*
X160551905Y-98512381D01*
X160932858Y-98512381D01*
X161028096Y-98560000D01*
X161075715Y-98607619D01*
X161123334Y-98702857D01*
X161123334Y-98845714D01*
X161075715Y-98940952D01*
X161028096Y-98988571D01*
X160932858Y-99036190D01*
X160551905Y-99036190D01*
X161456667Y-98512381D02*
X162075715Y-98512381D01*
X161742381Y-98893333D01*
X161885239Y-98893333D01*
X161980477Y-98940952D01*
X162028096Y-98988571D01*
X162075715Y-99083810D01*
X162075715Y-99321905D01*
X162028096Y-99417143D01*
X161980477Y-99464762D01*
X161885239Y-99512381D01*
X161599524Y-99512381D01*
X161504286Y-99464762D01*
X161456667Y-99417143D01*
M02*
