G04 #@! TF.FileFunction,Copper,L1,Top,Signal*
%FSLAX46Y46*%
G04 Gerber Fmt 4.6, Leading zero omitted, Abs format (unit mm)*
G04 Created by KiCad (PCBNEW 4.0.2+dfsg1-stable) date Wed 17 Oct 2018 17:21:07 BST*
%MOMM*%
G01*
G04 APERTURE LIST*
%ADD10C,0.100000*%
%ADD11R,1.397000X1.397000*%
%ADD12C,1.397000*%
%ADD13C,1.524000*%
%ADD14C,0.600000*%
%ADD15C,0.381000*%
%ADD16C,0.250000*%
G04 APERTURE END LIST*
D10*
D11*
X184150000Y-86360000D03*
D12*
X181610000Y-86360000D03*
X179070000Y-86360000D03*
X176530000Y-86360000D03*
X173990000Y-86360000D03*
X171450000Y-86360000D03*
X184150000Y-83820000D03*
X181610000Y-83820000D03*
X179070000Y-83820000D03*
X176530000Y-83820000D03*
X173990000Y-83820000D03*
X171450000Y-83820000D03*
D11*
X171450000Y-102870000D03*
D12*
X171450000Y-105410000D03*
X168910000Y-102870000D03*
X168910000Y-105410000D03*
X166370000Y-102870000D03*
X166370000Y-105410000D03*
X163830000Y-102870000D03*
X163830000Y-105410000D03*
X161290000Y-102870000D03*
X161290000Y-105410000D03*
X158750000Y-102870000D03*
X158750000Y-105410000D03*
X156210000Y-102870000D03*
X156210000Y-105410000D03*
X153670000Y-102870000D03*
X153670000Y-105410000D03*
X151130000Y-102870000D03*
X151130000Y-105410000D03*
X148590000Y-102870000D03*
X148590000Y-105410000D03*
X146050000Y-102870000D03*
X146050000Y-105410000D03*
X143510000Y-102870000D03*
X143510000Y-105410000D03*
X140970000Y-102870000D03*
X140970000Y-105410000D03*
X138430000Y-102870000D03*
X138430000Y-105410000D03*
X135890000Y-102870000D03*
X135890000Y-105410000D03*
X133350000Y-102870000D03*
X133350000Y-105410000D03*
X130810000Y-102870000D03*
X130810000Y-105410000D03*
D13*
X128270000Y-102870000D03*
X128270000Y-105410000D03*
X125730000Y-102870000D03*
X125730000Y-105410000D03*
X123190000Y-102870000D03*
X123190000Y-105410000D03*
D11*
X163830000Y-86360000D03*
D12*
X161290000Y-86360000D03*
X158750000Y-86360000D03*
X156210000Y-86360000D03*
X153670000Y-86360000D03*
X151130000Y-86360000D03*
X163830000Y-83820000D03*
X161290000Y-83820000D03*
X158750000Y-83820000D03*
X156210000Y-83820000D03*
X153670000Y-83820000D03*
X151130000Y-83820000D03*
D11*
X143510000Y-86360000D03*
D12*
X140970000Y-86360000D03*
X138430000Y-86360000D03*
X135890000Y-86360000D03*
X133350000Y-86360000D03*
X130810000Y-86360000D03*
X143510000Y-83820000D03*
X140970000Y-83820000D03*
X138430000Y-83820000D03*
X135890000Y-83820000D03*
X133350000Y-83820000D03*
X130810000Y-83820000D03*
D11*
X123190000Y-86360000D03*
D12*
X120650000Y-86360000D03*
X118110000Y-86360000D03*
X115570000Y-86360000D03*
X113030000Y-86360000D03*
X110490000Y-86360000D03*
X123190000Y-83820000D03*
X120650000Y-83820000D03*
X118110000Y-83820000D03*
X115570000Y-83820000D03*
X113030000Y-83820000D03*
X110490000Y-83820000D03*
D11*
X116205000Y-95250000D03*
D12*
X118745000Y-95250000D03*
X121285000Y-95250000D03*
D11*
X163830000Y-93980000D03*
D12*
X163830000Y-96520000D03*
X161290000Y-93980000D03*
X161290000Y-96520000D03*
X158750000Y-93980000D03*
X158750000Y-96520000D03*
D14*
X172720000Y-95885000D03*
X173355000Y-94615000D03*
X166370000Y-82550000D03*
X165735000Y-83185000D03*
X184150000Y-100330000D03*
X181610000Y-99695000D03*
X179070000Y-99060000D03*
X176530000Y-98425000D03*
X128905000Y-85090000D03*
X146050000Y-85090000D03*
X142875000Y-92075000D03*
X163830000Y-91440000D03*
X141605000Y-91440000D03*
X161290000Y-90805000D03*
X140335000Y-90805000D03*
X158750000Y-90170000D03*
X139065000Y-90170000D03*
X156210000Y-89535000D03*
D15*
X123190000Y-105410000D02*
X120015000Y-102235000D01*
X116205000Y-96520000D02*
X116205000Y-95250000D01*
X116840000Y-97155000D02*
X116205000Y-96520000D01*
X119380000Y-97155000D02*
X116840000Y-97155000D01*
X120015000Y-97790000D02*
X119380000Y-97155000D01*
X120015000Y-102235000D02*
X120015000Y-97790000D01*
X123190000Y-102870000D02*
X121920000Y-101600000D01*
X121285000Y-100965000D02*
X121285000Y-95250000D01*
X121920000Y-101600000D02*
X121285000Y-100965000D01*
X118745000Y-95250000D02*
X118745000Y-93980000D01*
X108585000Y-92075000D02*
X108585000Y-86995000D01*
X108585000Y-92710000D02*
X108585000Y-92075000D01*
X109220000Y-93345000D02*
X108585000Y-92710000D01*
X118110000Y-93345000D02*
X109220000Y-93345000D01*
X118745000Y-93980000D02*
X118110000Y-93345000D01*
X110490000Y-83820000D02*
X109220000Y-83820000D01*
X109220000Y-83820000D02*
X108585000Y-84455000D01*
X108585000Y-84455000D02*
X108585000Y-86995000D01*
X109220000Y-86360000D02*
X110490000Y-86360000D01*
X108585000Y-86995000D02*
X109220000Y-86360000D01*
D16*
X171450000Y-102870000D02*
X171450000Y-102235000D01*
X171450000Y-102235000D02*
X168275000Y-99060000D01*
X120650000Y-81915000D02*
X120650000Y-83820000D01*
X121285000Y-81280000D02*
X120650000Y-81915000D01*
X167640000Y-81280000D02*
X121285000Y-81280000D01*
X168275000Y-81915000D02*
X167640000Y-81280000D01*
X168275000Y-99060000D02*
X168275000Y-81915000D01*
X172720000Y-95885000D02*
X173355000Y-96520000D01*
X173355000Y-96520000D02*
X173355000Y-97155000D01*
X172720000Y-105410000D02*
X171450000Y-105410000D01*
X173355000Y-104775000D02*
X172720000Y-105410000D01*
X173355000Y-97155000D02*
X173355000Y-104775000D01*
X168910000Y-102870000D02*
X168910000Y-101600000D01*
X123190000Y-82550000D02*
X123190000Y-83820000D01*
X123825000Y-81915000D02*
X123190000Y-82550000D01*
X167005000Y-81915000D02*
X123825000Y-81915000D01*
X167640000Y-82550000D02*
X167005000Y-81915000D01*
X167640000Y-100330000D02*
X167640000Y-82550000D01*
X168910000Y-101600000D02*
X167640000Y-100330000D01*
X173355000Y-94615000D02*
X173990000Y-95250000D01*
X173990000Y-95250000D02*
X173990000Y-96520000D01*
X169545000Y-107315000D02*
X168910000Y-106680000D01*
X172085000Y-107315000D02*
X169545000Y-107315000D01*
X173990000Y-105410000D02*
X172085000Y-107315000D01*
X173990000Y-96520000D02*
X173990000Y-105410000D01*
X168910000Y-106680000D02*
X168910000Y-105410000D01*
X166370000Y-82550000D02*
X166370000Y-102870000D01*
X163830000Y-102870000D02*
X163830000Y-101600000D01*
X165735000Y-99695000D02*
X165735000Y-83185000D01*
X163830000Y-101600000D02*
X165735000Y-99695000D01*
X184150000Y-86360000D02*
X184150000Y-98425000D01*
X184150000Y-98425000D02*
X184150000Y-100330000D01*
X181610000Y-86360000D02*
X181610000Y-99060000D01*
X181610000Y-99060000D02*
X181610000Y-99695000D01*
X179070000Y-86360000D02*
X179070000Y-99060000D01*
X176530000Y-86360000D02*
X176530000Y-98425000D01*
X151130000Y-102870000D02*
X151130000Y-102235000D01*
X151130000Y-102235000D02*
X150495000Y-101600000D01*
X150495000Y-101600000D02*
X150495000Y-96520000D01*
X150495000Y-96520000D02*
X151130000Y-95885000D01*
X151130000Y-95885000D02*
X158115000Y-95885000D01*
X158115000Y-95885000D02*
X158750000Y-96520000D01*
X148590000Y-102870000D02*
X148590000Y-102235000D01*
X148590000Y-102235000D02*
X149225000Y-101600000D01*
X149225000Y-101600000D02*
X149225000Y-95885000D01*
X149225000Y-95885000D02*
X150495000Y-94615000D01*
X150495000Y-94615000D02*
X158115000Y-94615000D01*
X158115000Y-94615000D02*
X158750000Y-93980000D01*
X147955000Y-86360000D02*
X147955000Y-85725000D01*
X146050000Y-101600000D02*
X147955000Y-99695000D01*
X147955000Y-99695000D02*
X147955000Y-86360000D01*
X146050000Y-102870000D02*
X146050000Y-101600000D01*
X157480000Y-85090000D02*
X158750000Y-83820000D01*
X148590000Y-85090000D02*
X157480000Y-85090000D01*
X147955000Y-85725000D02*
X148590000Y-85090000D01*
X146685000Y-86360000D02*
X146685000Y-85725000D01*
X144780000Y-104140000D02*
X144780000Y-100965000D01*
X144780000Y-100965000D02*
X146685000Y-99060000D01*
X146685000Y-99060000D02*
X146685000Y-86360000D01*
X146050000Y-105410000D02*
X144780000Y-104140000D01*
X119380000Y-85090000D02*
X118110000Y-83820000D01*
X128905000Y-85090000D02*
X119380000Y-85090000D01*
X146685000Y-85725000D02*
X146050000Y-85090000D01*
X145415000Y-86360000D02*
X145415000Y-85725000D01*
X143510000Y-102870000D02*
X143510000Y-100330000D01*
X145415000Y-98425000D02*
X145415000Y-86360000D01*
X143510000Y-100330000D02*
X145415000Y-98425000D01*
X139700000Y-85090000D02*
X138430000Y-83820000D01*
X144780000Y-85090000D02*
X139700000Y-85090000D01*
X145415000Y-85725000D02*
X144780000Y-85090000D01*
X142240000Y-104140000D02*
X142240000Y-92710000D01*
X142240000Y-92710000D02*
X142875000Y-92075000D01*
X143510000Y-105410000D02*
X142240000Y-104140000D01*
X163830000Y-91440000D02*
X163830000Y-86360000D01*
X140970000Y-92075000D02*
X141605000Y-91440000D01*
X140970000Y-102870000D02*
X140970000Y-92075000D01*
X161290000Y-90805000D02*
X161290000Y-86360000D01*
X139700000Y-104140000D02*
X139700000Y-91440000D01*
X139700000Y-91440000D02*
X140335000Y-90805000D01*
X140970000Y-105410000D02*
X139700000Y-104140000D01*
X158750000Y-90170000D02*
X158750000Y-86360000D01*
X158750000Y-86995000D02*
X158750000Y-86360000D01*
X138430000Y-90805000D02*
X139065000Y-90170000D01*
X138430000Y-102870000D02*
X138430000Y-90805000D01*
X156210000Y-89535000D02*
X156210000Y-86360000D01*
X138430000Y-105410000D02*
X137160000Y-104140000D01*
X143510000Y-88900000D02*
X143510000Y-86360000D01*
X142875000Y-89535000D02*
X143510000Y-88900000D01*
X137795000Y-89535000D02*
X142875000Y-89535000D01*
X137160000Y-90170000D02*
X137795000Y-89535000D01*
X137160000Y-104140000D02*
X137160000Y-90170000D01*
X135890000Y-102870000D02*
X135890000Y-89535000D01*
X140970000Y-88265000D02*
X140970000Y-86360000D01*
X140335000Y-88900000D02*
X140970000Y-88265000D01*
X136525000Y-88900000D02*
X140335000Y-88900000D01*
X135890000Y-89535000D02*
X136525000Y-88900000D01*
X135890000Y-105410000D02*
X134620000Y-104140000D01*
X138430000Y-87630000D02*
X138430000Y-86360000D01*
X137795000Y-88265000D02*
X138430000Y-87630000D01*
X135255000Y-88265000D02*
X137795000Y-88265000D01*
X134620000Y-88900000D02*
X135255000Y-88265000D01*
X134620000Y-104140000D02*
X134620000Y-88900000D01*
X133350000Y-102870000D02*
X133350000Y-88900000D01*
X133350000Y-88900000D02*
X135890000Y-86360000D01*
X133350000Y-105410000D02*
X132080000Y-104140000D01*
X123190000Y-87630000D02*
X123190000Y-86360000D01*
X123825000Y-88265000D02*
X123190000Y-87630000D01*
X131445000Y-88265000D02*
X123825000Y-88265000D01*
X132080000Y-88900000D02*
X131445000Y-88265000D01*
X132080000Y-104140000D02*
X132080000Y-88900000D01*
X130810000Y-102870000D02*
X130810000Y-89535000D01*
X120650000Y-88265000D02*
X120650000Y-86360000D01*
X121285000Y-88900000D02*
X120650000Y-88265000D01*
X130175000Y-88900000D02*
X121285000Y-88900000D01*
X130810000Y-89535000D02*
X130175000Y-88900000D01*
X130810000Y-105410000D02*
X129540000Y-104140000D01*
X118110000Y-88900000D02*
X118110000Y-86360000D01*
X118745000Y-89535000D02*
X118110000Y-88900000D01*
X128905000Y-89535000D02*
X118745000Y-89535000D01*
X129540000Y-90170000D02*
X128905000Y-89535000D01*
X129540000Y-104140000D02*
X129540000Y-90170000D01*
X128270000Y-102870000D02*
X128270000Y-90805000D01*
X115570000Y-88900000D02*
X115570000Y-86360000D01*
X116840000Y-90170000D02*
X115570000Y-88900000D01*
X127635000Y-90170000D02*
X116840000Y-90170000D01*
X128270000Y-90805000D02*
X127635000Y-90170000D01*
X161290000Y-96520000D02*
X160020000Y-95250000D01*
X160020000Y-85090000D02*
X161290000Y-83820000D01*
X160020000Y-95250000D02*
X160020000Y-85090000D01*
X161290000Y-93980000D02*
X162560000Y-92710000D01*
X162560000Y-85090000D02*
X163830000Y-83820000D01*
X162560000Y-92710000D02*
X162560000Y-85090000D01*
M02*
